<svg xmlns="http://www.w3.org/2000/svg" viewBox="0 0 1000 280" width="1000" height="280" font-family="ui-monospace,'JetBrains Mono','Cascadia Mono','Courier New',monospace"><rect x="0" y="0" width="1000" height="280" fill="#000000"/><rect x="14" y="14" width="972" height="252" fill="none" stroke="#00C62F" stroke-width="1.6" stroke-dasharray="7 6" opacity="0.85"/><rect x="26" y="26" width="948" height="228" fill="#000000" stroke="#16331D" stroke-width="1"/><text x="48" y="58" font-size="14" fill="#00FF41">anubhav@matrix:~$ cumulative</text><text x="952" y="58" font-size="14" fill="#8CFFA9" text-anchor="end">total accrued over the year</text><line x1="76" y1="220.0" x2="952" y2="220.0" stroke="#16331D" stroke-width="1"/><text x="66" y="224.0" font-size="11" fill="#4E7F5C" text-anchor="end">0</text><line x1="76" y1="188.0" x2="952" y2="188.0" stroke="#16331D" stroke-width="1"/><text x="66" y="192.0" font-size="11" fill="#4E7F5C" text-anchor="end">178</text><line x1="76" y1="156.0" x2="952" y2="156.0" stroke="#16331D" stroke-width="1"/><text x="66" y="160.0" font-size="11" fill="#4E7F5C" text-anchor="end">356</text><line x1="76" y1="124.0" x2="952" y2="124.0" stroke="#16331D" stroke-width="1"/><text x="66" y="128.0" font-size="11" fill="#4E7F5C" text-anchor="end">534</text><line x1="76" y1="92.0" x2="952" y2="92.0" stroke="#16331D" stroke-width="1"/><text x="66" y="96.0" font-size="11" fill="#4E7F5C" text-anchor="end">712</text><path d="M76.0,220 L76.0,220.0 L149.0,219.8 L222.0,219.8 L295.0,219.8 L368.0,219.3 L441.0,190.7 L514.0,171.6 L587.0,156.4 L660.0,136.6 L733.0,128.1 L806.0,124.4 L879.0,107.5 L952.0,92.0 L952.0,220 Z" fill="#1FD64A" opacity="0.16"/><path d="M76.0,220.0 L149.0,219.8 L222.0,219.8 L295.0,219.8 L368.0,219.3 L441.0,190.7 L514.0,171.6 L587.0,156.4 L660.0,136.6 L733.0,128.1 L806.0,124.4 L879.0,107.5 L952.0,92.0" fill="none" stroke="#1FD64A" stroke-width="2" stroke-linejoin="round"/><text x="76.0" y="240" font-size="11" fill="#4E7F5C" text-anchor="middle">Aug</text><text x="149.0" y="240" font-size="11" fill="#4E7F5C" text-anchor="middle">Sep</text><text x="222.0" y="240" font-size="11" fill="#4E7F5C" text-anchor="middle">Oct</text><text x="295.0" y="240" font-size="11" fill="#4E7F5C" text-anchor="middle">Nov</text><text x="368.0" y="240" font-size="11" fill="#4E7F5C" text-anchor="middle">Dec</text><text x="441.0" y="240" font-size="11" fill="#4E7F5C" text-anchor="middle">Jan</text><text x="514.0" y="240" font-size="11" fill="#4E7F5C" text-anchor="middle">Feb</text><text x="587.0" y="240" font-size="11" fill="#4E7F5C" text-anchor="middle">Mar</text><text x="660.0" y="240" font-size="11" fill="#4E7F5C" text-anchor="middle">Apr</text><text x="733.0" y="240" font-size="11" fill="#4E7F5C" text-anchor="middle">May</text><text x="806.0" y="240" font-size="11" fill="#4E7F5C" text-anchor="middle">Jun</text><text x="879.0" y="240" font-size="11" fill="#4E7F5C" text-anchor="middle">Jul</text><text x="952.0" y="240" font-size="11" fill="#4E7F5C" text-anchor="middle">Aug</text><circle cx="952.0" cy="92.0" r="4.5" fill="#1FD64A" stroke="#000000" stroke-width="2"/><text x="944.0" y="108.0" font-size="14" fill="#D6FFE1" text-anchor="end">712</text></svg>